<?xml version="1.0" encoding="iso-8859-1"?>
<!-- Uploaded to: SVG Repo, www.svgrepo.com, Generator: SVG Repo Mixer Tools -->
<svg height="800px" width="800px" version="1.1" id="Layer_1" xmlns="http://www.w3.org/2000/svg" xmlns:xlink="http://www.w3.org/1999/xlink" 
	 viewBox="0 0 512 512" xml:space="preserve">
<path style="fill:#3D6DEB;" d="M403.396,232.727c-12.853,0-23.273,10.42-23.273,23.273c0,107.627-81.602,196.54-186.18,208.154
	V236.57l108.207-36.068c12.193-4.065,18.783-17.245,14.719-29.438c-4.065-12.193-17.248-18.783-29.438-14.719l-93.488,31.164
	v-44.026l108.207-36.068c12.193-4.065,18.783-17.245,14.719-29.438c-4.065-12.193-17.248-18.783-29.438-14.719l-93.488,31.162
	V23.273C193.943,10.42,183.523,0,170.67,0c-12.853,0-23.273,10.42-23.273,23.273v86.66l-46.15,15.383
	c-12.193,4.065-18.783,17.245-14.719,29.438c3.252,9.753,12.331,15.919,22.077,15.919c2.439,0,4.921-0.386,7.363-1.199
	l31.429-10.477v44.026l-46.148,15.382c-12.193,4.065-18.783,17.245-14.719,29.438c3.252,9.753,12.331,15.919,22.077,15.919
	c2.439,0,4.921-0.386,7.363-1.199l31.429-10.477v236.643c0,12.853,10.42,23.273,23.273,23.273c141.158,0,256-114.842,256-256
	C426.669,243.147,416.249,232.727,403.396,232.727z"/>
</svg>